<svg width="575.04" height="421.12" version="1.1" viewBox="0 0 575.04 421.12" xmlns="http://www.w3.org/2000/svg">
 <path d="m123.84 420.76c-5.4696-0.80836-9.0609-3.9573-11.194-9.8153-1.305-3.5832-1.72-6.7252-1.5185-11.495 0.19574-4.6334 0.71735-6.9334 2.3144-10.205 2.4558-5.0312 6.1589-7.1543 12.478-7.1543 5.673 0 9.3873 1.8366 11.326 5.6 0.71192 1.3821 1.4242 4.5156 1.1333 4.9861-0.0973 0.15751-1.6641 0.28637-3.4818 0.28637h-3.3048l-0.21437-1.52c-0.1179-0.836-0.57189-2.2659-1.0089-3.1775-0.62314-1.3-1.0897-1.8004-2.163-2.32-2.7813-1.3464-6.458-0.50236-8.0663 1.8518-0.43804 0.64118-1.1837 2.3178-1.6571 3.7258-0.80924 2.407-0.86119 2.9139-0.86912 8.48-9e-3 6.3854 0.29573 8.248 1.9377 11.84 0.95315 2.0851 2.06 3.3259 3.8084 4.2693 1.0794 0.58247 1.8065 0.69069 4.64 0.69069 3.6186 0 4.3602-0.23994 7.6-2.4592l1.36-0.93158v5.186l-1.68 0.73677c-3.2123 1.4088-7.7382 1.9728-11.44 1.4257zm94.62 0.0205c-5.6896-0.85716-9.2908-4.5198-11.148-11.338-1.0053-3.6907-1.0038-12.246 3e-3 -16 1.4526-5.4175 4.1527-8.9513 7.9662-10.426 2.297-0.88816 7.056-1.1921 9.6466-0.6161 5.1188 1.1381 8.4072 4.7198 10.138 11.042 0.69279 2.531 0.97007 10.42 0.47773 13.593-0.77981 5.0241-2.7503 9.033-5.5137 11.217-2.673 2.1129-7.4286 3.1522-11.569 2.5284zm5.6302-3.611c3.5574-1.4948 5.3497-6.7639 5.3497-15.727 0-7.0164-1.185-12.133-3.2792-14.16-2.9256-2.8315-8.0371-2.6223-10.361 0.42404-2.7938 3.6629-3.8336 15.073-2.0468 22.462 0.98157 4.0592 2.0278 5.735 4.3266 6.9307 1.1951 0.62157 4.6038 0.66157 6.0103 0.0705zm23.43 3.6032c-1.408-0.15328-3.352-0.46438-4.32-0.69133l-1.76-0.41267-0.0918-2.938-0.0918-2.938 2.6845 1.258c3.3746 1.5814 5.4311 2.0255 8.5448 1.8452 1.8192-0.10531 2.7642-0.33123 3.6342-0.86889 1.9174-1.185 2.7427-3.4727 2.1059-5.8375-0.56065-2.0821-2.6581-3.9078-8.5239-7.4194-3.5112-2.102-5.5938-3.5722-6.4693-4.5668-3.4144-3.879-3.4449-9.5392-0.0696-12.915 2.1622-2.1622 4.36-2.9356 8.8983-3.1312 3.1461-0.13565 7.9094 0.26656 9.2502 0.78106 0.3316 0.12723 0.44857 0.82163 0.44857 2.6629v2.4908l-2.1723-0.88406c-7.2016-2.9307-12.862-1.6173-12.866 2.9856-3e-3 2.9296 1.3728 4.2907 8.6388 8.5473 5.6764 3.3253 6.6973 4.1952 8.0124 6.827 0.80118 1.6033 0.94733 2.2716 0.94582 4.3252-2e-3 3.006-0.36507 4.3586-1.6868 6.2877-2.4542 3.582-8.2391 5.3398-15.111 4.5917zm106.32 0.0401c-8.49-1.137-13.094-8.1394-13.157-20.011-0.0507-9.5388 2.7967-15.593 8.3769-17.811 1.5833-0.62928 2.4169-0.72675 6.3045-0.73721 5.4901-0.0147 7.0457 0.42912 9.5615 2.7285 1.8517 1.6924 2.8737 3.6252 3.246 6.1395l0.22512 1.52h-7.1127v-0.90192c0-2.6672-1.5876-5.3495-3.6208-6.1177-2.0155-0.76151-5.1967-0.28093-7.0284 1.0618-3.6221 2.6552-4.8831 15.994-2.2884 24.208 1.017 3.2194 2.9074 5.4491 5.2911 6.2409 2.2914 0.76109 5.8032 0.55229 7.4065-0.44038l1.2-0.74295v-13.708h-7.36v-3.52h13.45l-0.1696 18.72-2.72 1.3534c-3.7245 1.8532-7.6862 2.5419-11.604 2.0172zm47.764-0.0192c-5.9524-0.82765-9.5441-4.4041-11.399-11.351-0.47884-1.7931-0.59843-3.3891-0.59939-8 0-6.4411 0.31456-8.1807 2.2173-12.21 1.3482-2.855 3.1467-4.6804 5.8931-5.9816 2.0497-0.97111 2.2824-1.0083 6.2884-1.0053 5.2612 4e-3 7.0792 0.62279 9.7791 3.3289 1.9993 2.0039 3.2075 4.2929 4.2045 7.9651 0.93402 3.4404 1.0082 11.537 0.13984 15.263-1.687 7.2393-5.4146 11.095-11.589 11.987-2.4401 0.35267-2.427 0.35267-4.9342 4e-3zm5.6927-3.8002c2.2776-1.168 3.2286-2.7124 4.2999-6.9832 0.59578-2.3749 0.70439-3.6962 0.70439-8.5679 0-6.1215-0.58592-9.7648-2.0203-12.562-1.2088-2.3573-3.3182-3.5981-6.1167-3.5981-3.9646 0-5.8709 1.8606-7.4346 7.2566-0.65316 2.254-0.7233 3.1571-0.70404 9.0634 0.0186 5.7284 0.11066 6.8845 0.72564 9.12 1.3766 5.0042 3.3714 6.88 7.316 6.88 1.3783 0 2.4285-0.19798 3.2297-0.60886zm141.99 3.7712c-1.408-0.14876-3.352-0.45619-4.32-0.68313l-1.76-0.41267-0.1836-5.876 2.6518 1.2271c1.4585 0.67491 3.4217 1.4058 4.3627 1.6241 2.2062 0.51187 6.2836 0.27606 7.6633-0.4432 1.9792-1.0318 3.0156-3.7157 2.3251-6.0206-0.65053-2.1713-2.5864-3.865-8.3469-7.3025-7.6009-4.5358-9.1132-6.4228-9.1001-11.355 6e-3 -2.2191 0.1312-2.7868 0.94099-4.2635 1.8794-3.4271 4.7895-4.8677 10.308-5.1029 3.1438-0.13402 7.9127 0.26953 9.2501 0.78278 0.33197 0.12736 0.44858 0.8241 0.44858 2.6803v2.5081l-1.7971-0.79475c-2.3651-1.046-5.2977-1.7194-7.5126-1.7253-4.3928-0.0115-6.9172 3.4542-5.1044 7.0077 0.86903 1.7035 1.8795 2.4737 8.0035 6.1012 2.9979 1.7758 5.7963 3.6755 6.36 4.3175 2.1985 2.5039 3.0834 5.4633 2.6182 8.7551-0.74076 5.2406-4.2984 8.1684-10.937 9.0009-1.4595 0.18301-2.8014 0.31312-2.982 0.28912-0.1806-0.024-1.4804-0.16531-2.8884-0.31408zm-539.04-19.172v-18.89l8.0983 0.1792 5.1508 15.093c2.833 8.3012 5.2148 15.029 5.293 14.951 0.07817-0.078 2.4689-6.8699 5.3128-15.093l5.1707-14.951 7.7744-0.1798v37.806l-5.28-0.1859-0.16-15.93-0.16-15.93-5.4502 15.93-5.4502 15.93-4.5534 0.1866-0.95069-2.8134c-6.0646-17.947-9.794-28.82-10.02-29.213-0.1572-0.27357-0.28 6.5043-0.28555 15.76l-0.0097 16.24h-4.48zm45.76 0.01v-18.88h19.84v3.52h-14.094l0.17352 12.64 12.96 0.1732v3.5068h-13.12v13.76h14.4v4.16h-20.16zm26.453 18.667c-0.11734-0.11735-0.21334-8.6134-0.21334-18.88v-18.667h6.2191c11.338 0 15.431 1.7284 16.521 6.9768 1.1989 5.7752-1.089 9.5622-6.9001 11.421-0.50364 0.16112-0.28191 0.32611 1.0407 0.77443 2.1946 0.7439 2.8711 1.3836 3.9448 3.7304 0.71735 1.5678 3.4944 13.112 3.4944 14.526 0 0.20422-1.141 0.33094-2.98 0.33094h-2.98l-1.2041-5.68c-2.0213-9.5348-3.0225-10.868-8.4157-11.204l-2.6602-0.16595v17.05h-2.8267c-1.5547 0-2.9227-0.096-3.04-0.21334zm12.421-20.965c0.7008-0.22822 1.8754-0.99254 2.6102-1.6985 1.5019-1.443 1.9086-2.9523 1.6467-6.1109-0.28625-3.4518-2.5691-4.996-7.6897-5.2017l-3.1214-0.12541v13.925l2.64-0.18663c1.452-0.10262 3.2134-0.37334 3.9142-0.60153zm44.646 20.949c0-0.14029 2.7838-8.6061 6.1863-18.813l6.1863-18.558 6.3531-0.1806 6.2127 18.49c3.417 10.17 6.2772 18.676 6.356 18.902 0.11186 0.3217-0.54361 0.39188-2.9896 0.32l-3.1329-0.0921-0.56783-1.76c-0.31231-0.968-1.0889-3.4549-1.7257-5.5264l-1.1579-3.7664-13.187 0.1728-1.6665 5.44-1.6665 5.44-2.6001 0.0929c-1.4301 0.0511-2.6001-0.0218-2.6001-0.16205zm20.48-14.956c0-0.28452-4.8792-16.343-5.0785-16.714-0.15245-0.28409-4.3141 12.266-5.4047 16.299-0.13979 0.51693 0.25741 0.56 5.1659 0.56 2.9245 0 5.3173-0.0652 5.3173-0.14486zm15.68-3.6518v-18.923h6.1888c6.6354 0 9.4714 0.44064 12.377 1.923 3.1424 1.6031 5.3836 4.722 6.4365 8.957 0.69063 2.7779 0.5847 13.33-0.16063 16-1.2492 4.4749-3.174 7.063-6.5104 8.7537-2.9582 1.499-4.9516 1.841-11.851 2.0328l-6.48 0.18016zm12.935 14.54c3.0518-0.91849 4.5852-2.5404 5.6756-6.003 1.2932-4.1069 1.2806-14.021-0.0228-17.937-1.3068-3.9269-4.1495-5.7277-9.3877-5.9471l-3.12-0.13065v30.474h2.6691c1.468 0 3.3517-0.20541 4.1858-0.45645zm96.825-14.584v-18.88h6.2804c5.2462 0 6.7489 0.11002 9.1258 0.66803 5.1088 1.1994 7.1495 3.3276 7.5288 7.8516 0.42924 5.1198-1.6574 8.0284-7.0949 9.8892-0.5146 0.1761-0.34573 0.30727 0.86188 0.66951 2.0396 0.61174 3.5286 2.1146 4.401 4.4417 0.59962 1.5996 3.2172 12.936 3.2172 13.933 0 0.17399-1.291 0.30698-2.98 0.30698h-2.98l-1.2041-5.68c-2.0213-9.5348-3.0225-10.868-8.4157-11.204l-2.6602-0.16595v17.05h-6.08zm12.568-2.2777c1.8604-0.60775 3.6768-2.3359 4.1003-3.901 0.51448-1.9014 0.20446-5.511-0.56433-6.5706-1.1451-1.5783-3.414-2.4197-6.9026-2.5598l-3.1214-0.12537v13.925l2.64-0.18663c1.452-0.10262 3.1836-0.36419 3.848-0.58124zm18.045 20.944c-0.11733-0.11732-0.21333-8.6133-0.21333-18.88v-18.667h20.16v3.52h-14.08v12.8h13.12v3.52h-13.12v13.76h14.4v4.16h-10.027c-5.5147 0-10.123-0.096-10.24-0.21334zm60.267-18.667v-18.88h5.76v37.76h-5.76zm49.493 18.667c-0.11734-0.11732-0.21334-8.6133-0.21334-18.88v-18.667h6.8856l14.714 29.456 0.19709-10.008c0.10839-5.5044 0.21639-12.132 0.24-14.728l0.0429-4.72h4.8v37.783l-6.1302-0.1832-15.616-30.72-0.014 30.88h-2.3467c-1.2907 0-2.4427-0.096-2.56-0.21334zm31.787-0.0288c0-0.13316 2.7838-8.5932 6.1863-18.8l6.1863-18.558 6.3473-0.1797 12.594 37.802-6.1922-0.1826-0.85965-2.72c-0.47283-1.496-1.247-3.9829-1.7204-5.5264l-0.86074-2.8064-13.148 0.1728-0.56835 1.76c-0.31258 0.968-1.0885 3.452-1.7242 5.52l-1.1559 3.76h-2.5422c-1.3982 0-2.5422-0.10893-2.5422-0.24208zm20.349-15.358c-0.096-0.308-1.2611-4.1514-2.5891-8.5408-1.328-4.3894-2.4582-8.0245-2.5116-8.0779-0.10131-0.10128-5.3295 16.519-5.3285 16.939 2.9e-4 0.132 2.3862 0.24 5.3021 0.24 4.9023 0 5.2884-0.0422 5.127-0.56zm15.811-3.2754v-18.885h6.08v33.588l13.92 0.1724v3.84l-20 0.1691zm24.32-4e-3v-18.88h20.193l-0.1934 3.36-13.92 0.1724v12.788h13.12v3.52h-13.12v13.76h14.4v4.16h-20.48zm-515.52-52.641v-12.96h416.55l0.20884 2.64c0.50172 6.3436 2.9797 11.128 7.3052 14.104 2.662 1.8316 4.9557 2.4993 8.5518 2.4894 5.1772-0.0144 9.0872-1.4238 11.701-4.2181 0.8319-0.88938 1.5426-1.5716 1.5793-1.5161 0.0367 0.0555 0.69523 1.1809 1.4634 2.5009 3.9995 6.8727 10.453 10.208 17.129 8.8521 5.6033-1.1378 10.114-4.4796 12.448-9.2216 2.0173-4.0992 2.509-8.0096 1.6235-12.91-0.2544-1.408-0.46538-2.596-0.46883-2.64-4e-3 -0.044 1.6147-0.08 3.5959-0.08h3.6022l-4.1848-8.4c-2.3016-4.62-4.336-8.8362-4.5209-9.3692l-0.33613-0.96923 4.9821-2.7 4.313 8.2392c6.1228 11.696 5.8758 11.306 7.7423 12.239l1.6 0.8 18.203 0.0902c15.574 0.0772 18.446 0.0195 19.886-0.39908 2.2373-0.6504 3.4099-2.002 4.0917-4.7162 0.28711-1.1429 2.6158-7.7518 5.175-14.686 2.746-7.4411 4.8729-13.723 5.1896-15.328 0.73114-3.7058 0.7072-11.245-0.0493-15.52-1.5043-8.5002-4.7779-16.534-12.714-31.2-4.8804-9.0192-5.8128-10.945-8.8296-18.24-3.3631-8.132-3.862-9.5402-5.4867-15.487-1.6065-5.8804-2.1462-8.9547-2.6176-14.913-0.47555-6.0098-0.20035-11.643 0.81904-16.767 0.44771-2.2501 0.9041-4.8574 1.0142-5.7941l0.20016-1.703-1.8807-0.22235c-2.7041-0.31967-5.4669-0.92155-10.175-2.2166-2.274-0.62549-4.3886-1.1372-4.6992-1.1372-0.48522 0-0.39046 0.37178 0.67328 2.6418 1.4145 3.0184 2.6632 7.1018 3.4491 11.278 0.82166 4.3669 0.71145 14.724-0.21117 19.84-2.4636 13.661-7.705 27.069-18.139 46.4-4.8756 9.0332-7.671 14.999-9.2225 19.68-2.0213 6.0993-2.5386 9.6358-2.3856 16.309 0.0682 2.9767 0.22432 5.5124 0.34675 5.6349 0.39283 0.39281 1.6494-0.6849 3.0647-2.6283l1.3772-1.8912 0.0854-3.9923c0.0728-3.403 0.21693-4.3701 0.97668-6.5523 1.308-3.7569 3.7665-8.7355 8.096-16.395 3.2199-5.6964 4.6512-8.6736 5.38-11.191 0.23331-0.80576 9.608-3.2716 16.943-4.4565 4.998-0.80739 12.488-0.80496 14.956 5e-3 2.967 0.97371 3.6939 1.876 7.3772 9.1575 3.8257 7.5629 5.1119 10.547 7.2823 16.892 2.1505 6.2874 2.6151 8.7012 2.6308 13.668 0.0198 6.2845-0.5255 8.7609-4.7921 21.76-4.8574 14.799-6.976 18.734-10.57 19.635-0.6623 0.16588-8.6009 0.39187-17.641 0.50214l-16.437 0.20048-1.3755-0.80611c-2.1402-1.2542-4.3166-4.4948-8.3006-12.359l-3.6615-7.2275 1.1859-0.5635c7.5682-3.5962 15.969-13.274 21.343-24.588 2.346-4.939 5.3972-13.986 4.8884-14.495-0.0805-0.0805-1.5652 0.31288-3.2993 0.8742l-3.1529 1.0206 1.4232 0.35298c0.96506 0.23936 1.3936 0.50431 1.3314 0.82307-0.18525 0.94845-3.7472 9.2361-5.8408 13.59-2.9125 6.057-5.5364 9.9502-9.0691 13.456-8.2887 8.2267-18.677 11.707-40.949 13.72-2.7887 0.25195-5.1354 0.52307-5.2148 0.60249-0.0794 0.0794 0.41008 0.58355 1.0878 1.1203 0.67766 0.53674 1.4914 1.4572 1.8082 2.0456l0.57607 1.0697-1.2683 1.913c-3.8652 5.8302-4.6311 9.194-3.7685 16.55 0.36976 3.1533 0.42051 4.5746 0.17945 5.0251-0.44252 0.82684-3.637 3.4165-5.195 4.2113-0.67715 0.34547-2.2333 0.85443-3.4582 1.131-2.8139 0.63546-5.6871 0.21114-8.4148-1.2427-3.605-1.9214-5.9102-5.35-6.8689-10.216-0.43511-2.2086-0.45395-3.0458-0.12679-5.6362 0.68519-5.4249 2.4078-9.213 5.9576-13.101l1.9035-2.085-16.287 0.23676v-7.68l4.64 0.0589c2.552 0.0324 7.664 0.36418 11.36 0.73727 8.6949 0.87771 14.56 1.1702 14.56 0.72616 0-0.69876-1.3835-4.7824-2.0878-6.1623-2.4099-4.7221-7.399-10.154-17.432-18.981-10.671-9.3875-14.527-13.712-16.024-17.97-0.68701-1.9546-0.81536-5.2623-0.26544-6.8398 0.30275-0.86851 0.46688-0.9812 1.2-0.82386 1.4706 0.31564 8.4768 3.8291 11.759 5.8969 8.1618 5.1419 14.146 10.326 17.106 14.819 3.3135 5.0297 4.7514 9.335 6.7364 20.17 1.2938 7.0621 2.2529 10.448 2.9596 10.448 0.55322 0 1.7494-0.89224 2.117-1.579 0.55536-1.0377 1.2912-8.3529 1.2912-12.836 0-5.9978-0.44016-9.897-2.2921-20.305-1.7846-10.029-2.2559-15.891-1.5618-19.419 0.528-2.6837 1.8762-5.5456 3.4274-7.2756l1.2686-1.4148 1.1856 1.8948c2.4131 3.8565 5.1509 12.254 6.8257 20.935 1.035 5.3648 1.1543 11.383 0.31708 16-0.81526 4.4957-2.2789 10.063-3.586 13.64-2.3005 6.2955-3.4094 9.7618-3.1922 9.9786 0.34032 0.33983 5.8989 0.17983 7.5868-0.21837 2.925-0.69009 5.1797-1.7431 8.3801-3.9135 1.7824-1.2088 3.6532-2.5424 4.1573-2.9635l0.91654-0.76565-0.59654-3.1588c-0.79651-4.2174-0.78685-12.39 0.0198-16.919 1.5703-8.8132 5.1325-17.571 13.212-32.48 6.2091-11.458 8.7871-17.1 11.405-24.96 6.0409-18.135 6.9038-35.061 2.2777-44.679-1.042-2.1667-3.8058-5.241-4.7115-5.241-0.18202 0-1.3179-0.29394-2.5242-0.65319l-2.1933-0.65319 0.49405-1.1824c0.74138-1.7743 1.6855-2.5964 3.6315-3.1622 2.3728-0.6898 5.3571-0.25492 11.145 1.6241 7.075 2.2969 10.853 3.0917 18.807 3.9564l2.24 0.2435-0.0894 1.094c-0.0492 0.6017-0.82211 3.9828-1.7176 7.5135-1.5704 6.1919-1.6339 6.6152-1.7909 11.94-0.0907 3.0758-0.0386 5.511 0.11753 5.4996 0.15418-0.0112 0.90496-1.3174 1.6684-2.9026 2.3572-4.8946 6.7835-8.7833 12.265-10.775 2.1148-0.76857 2.7745-0.85204 6.6671-0.84367 3.8702 8e-3 4.6032 0.10339 7.04 0.91293 4.9175 1.6337 8.2525 3.6672 11.663 7.1118 3.8394 3.8773 7.3493 10.198 9.0386 16.277 0.81699 2.94 0.88912 3.655 0.88764 8.8 0 5.0045-0.0921 5.9573-0.85276 8.96-1.7895 7.064-5.2155 14.3-11.443 24.168-1.9965 3.1637-5.213 8.2667-7.1478 11.34l-3.5178 5.588 0.98925 3.052c4.4721 13.797 3.9938 24.15-1.8264 39.532-2.6773 7.0758-6.7437 16.877-7.7336 18.64l-0.94326 1.68h20.805v25.92h-560.32zm431.31-19.175c1.2573-0.65018 3.5108-3.1911 4.2247-4.7637 0.33481-0.73751 0.61193-1.9496 0.61577-2.6935 6e-3 -1.0881-0.14688-1.4535-0.77996-1.8683-1.9859-1.3012-6.6495 1.5082-8.0441 4.846-0.55664 1.3322-0.58128 3.3657-0.0489 4.037 0.76838 0.96886 2.6214 1.1722 4.0325 0.44256zm116.29-69.268c5.15-5.3904 10.453-12.744 13.361-18.527 6.1955-12.32 6.4156-26.209 0.57126-36.051-4.8467-8.1622-14.468-12.187-22.57-9.4405-5.225 1.7711-10.541 6.8219-13.231 12.57-1.6487 3.5231-1.848 4.7285-1.3488 8.1551 1.4176 9.7292 5.0059 18.699 13.276 33.188 2.2067 3.866 4.6921 8.289 5.5229 9.829 0.83091 1.54 1.6226 2.8 1.7592 2.8 0.1367 0 1.3335-1.1356 2.6595-2.5235zm-89.21 97.329c-4.2442-1.5234-7.6158-4.7425-9.902-9.454-1.8396-3.791-2.5045-6.5995-2.5172-10.631-0.0221-6.9924 2.7633-11.831 8.3444-14.496 2.3472-1.1208 2.6491-1.1837 5.679-1.1837 2.9492 0 3.3728 0.0819 5.4053 1.0444 4.1807 1.9799 7.8593 6.8902 9.5259 12.716 1.0666 3.7283 1.0607 9.6081-0.0128 12.885-1.904 5.8114-6.3312 9.2358-12.358 9.5589-1.9296 0.10346-2.955-4e-3 -4.1642-0.43856zm-3.3689-18.204c2.289-1.9261 3.6189-7.07 2.4249-9.379-0.57641-1.1147-1.0406-1.3029-3.2135-1.3029-1.3906 0-1.9009 0.16125-2.7373 0.86506-1.294 1.0888-1.9019 2.5253-1.8979 4.4847 5e-3 2.7234 2.1593 6.1703 3.8555 6.1703 0.31478 0 1.0205-0.37715 1.5684-0.83811zm-457.27-23.753v-4.1132l7.12-0.19615c8.1351-0.22412 10.466-0.6153 14-2.3492 5.9691-2.929 9.1436-8.8543 10.722-20.012 0.28144-1.99 0.64272-7.2182 0.80284-11.618 0.39568-10.873 0.39316-141.46-0.0029-147.2-0.33258-4.8238-0.85515-7.3201-2.1054-10.058-1.682-3.6829-4.4736-6.0579-8.8313-7.5134-3.1246-1.0436-7.3212-1.469-14.492-1.469h-5.9326v-8.32l69.92 0.012 40.48 79.503c22.264 43.727 40.552 79.507 40.64 79.511 0.088 4e-3 16.082-35.739 35.543-79.429l35.383-79.437 78.834-0.1626v8.3225l-5.84 6e-3c-3.212 3e-3 -7.1898 0.14771-8.8395 0.32147-11.318 1.1921-16.382 6.1123-17.63 17.128-0.26113 2.3059-0.33191 25.801-0.25638 85.105 0.0947 74.394 0.15219 82.111 0.62526 84 1.948 7.7778 5.4967 11.312 13.06 13.005 1.3672 0.30609 4.962 0.53136 10.489 0.65732l8.4092 0.19165-0.0892 4.033-0.0892 4.0331-105.76 0.1619v-8.3223l4.4-2.7e-4c5.21-3.2e-4 10.407-0.45006 13.053-1.1296 7.6821-1.9726 11.175-7.0596 11.983-17.452 0.36647-4.714 0.4477-175.13 0.0834-174.91-0.13223 0.0817-20.392 45.522-45.022 100.98l-44.782 100.83h-2.3566l-45.527-87.44c-25.04-48.092-45.793-87.872-46.119-88.4-0.57716-0.93568-0.58992 0.8314-0.50369 69.76 0.08245 65.907 0.12698 70.949 0.65434 74.08 1.9615 11.647 5.3249 17.584 11.767 20.771 4.3052 2.1298 7.1651 2.5852 17.657 2.8119l8.8892 0.19205-0.17842 8.065-80.16 0.1625zm312-0.17644v-3.9672l7.76-0.15344c5.7474-0.11364 8.2914-0.29013 9.8088-0.68049 5.6567-1.4552 8.621-4.3988 10.183-10.112 0.53395-1.9534 0.56858-5.2647 0.56858-54.4v-52.32l-0.71674-2.279c-1.6781-5.3357-4.7006-7.7111-11.157-8.7684-1.0375-0.1699-5.1668-0.30975-9.1762-0.31077l-7.2898-2e-3 0.0898-3.92 0.0899-3.92 9.6-0.20222c10.228-0.21545 11.21-0.34803 14.363-1.9401 6.4605-3.2612 9.1468-10.305 9.154-24.001 4e-3 -7.945-1.0972-14.544-3.6748-22.016-1.3762-3.9898-5.283-12.086-6.5316-13.535-0.48566-0.56375-1.8325-2.465-2.993-4.225-1.1605-1.76-3.8984-5.3773-6.0842-8.0384-8.0515-9.8023-12.134-15.739-15.155-22.041-6.7021-13.98-7.2858-30.259-1.872-52.218 1.5718-6.3753 5.9484-20.17 6.8893-21.715 1.482-2.4328 6.1066-3.5264 18.318-4.3318 7.5004-0.49467 28.62-0.20725 35.586 0.48429 8.0818 0.80234 9.9526 1.4727 11.5 4.1206 1.063 1.8189 5.3081 14.599 6.8756 20.699 2.7039 10.523 3.6414 17.166 3.6575 25.92 0.0205 11.069-1.9731 20.051-6.4198 28.926-2.7609 5.5101-4.5833 8.1364-12.268 17.68-4.2614 5.2923-5.5595 7.1482-5.228 7.4748 0.15555 0.15324 1.7948 0.60665 3.6428 1.0076 2.916 0.63264 4.2902 0.73004 10.4 0.73714 7.8676 9e-3 10.862-0.3591 18.499-2.275 12.008-3.0124 24.824-8.7148 35.943-15.993 4.9069-3.2118 6.8997-5.8908 4.3671-5.8708-1.2286 0.0097-2.8433 0.79111-7.9842 3.8639-5.6513 3.3778-16.532 8.8903-22.506 11.402-8.36 3.5152-13.811 4.9186-16.414 4.2255-1.7719-0.47178-4.0804-2.8307-4.6788-4.7808-0.40003-1.3039-1.0574-11.159-0.76723-11.502 0.15949-0.18848 3.8479 0.79869 6.0182 1.6107 0.93789 0.35091 2.2581 1.0788 2.9337 1.6175 1.2981 1.035 3.795 2.4263 3.5522 1.9794-0.0787-0.14497-0.88342-1.5037-1.7882-3.0194-3.9191-6.5652-5.1328-10.468-4.098-13.178 1.4213-3.7217 4.1049-4.7402 14.09-5.3476 7.4554-0.4535 12.993-0.41903 12.991 0.08087 0 0.22-0.5041 3.064-1.1188 6.32-0.61469 3.256-1.112 6.136-1.1053 6.4 7e-3 0.264 0.35273-0.33922 0.76876-1.3405 3.0061-7.2349 7.5904-9.8376 14.897-8.4575 2.4628 0.46521 14.592 4.1238 14.99 4.5213 0.23094 0.23093-5.2508 16.907-6.2292 18.95-1.0591 2.2114-2.357 3.2209-6.7573 5.2557l-3.6674 1.6958 3.1251 0.39247c3.3416 0.41966 6.9429 1.3835 7.9641 2.1314 0.60935 0.4463 0.60032 0.4864-0.35392 1.5732-0.53856 0.61338-2.7871 3.849-4.9968 7.1903-4.3424 6.5662-7.1425 9.7331-9.7337 11.009-2.1446 1.0559-5.0996 1.0496-7.3009-0.0156-2.2143-1.0715-6.0642-5.071-7.9033-8.2102-0.82678-1.4113-1.7988-2.8335-2.16-3.1604-0.65379-0.59168-0.65677-0.5873-0.66307 0.97525-0.01 2.4883-0.58003 5.799-1.4085 8.1813-0.80055 2.302-2.59 5.3883-3.1241 5.3883-0.44832 0-5.5822-4.4154-7.4036-6.3676-2.5483-2.7311-2.9381-3.9268-2.9329-8.9949l4e-3 -4.3226-2.7245 0.56303c-1.4984 0.30967-4.5957 0.71806-6.8828 0.90755-2.2871 0.18948-4.2047 0.39093-4.2614 0.44765-0.0567 0.0567 1.5985 1.2335 3.6783 2.615 6.1025 4.0537 8.2662 7.2095 9.5538 13.935 2.286 11.94 2.7466 14.109 3.5231 16.585 1.7938 5.7211 5.2164 10.665 8.6824 12.54 2.89 1.5642 4.9171 1.9472 9.4407 1.7838l4.0976-0.14796-1.6501 1.1113c-2.6201 1.7644-5.2144 2.679-8.1225 2.8632-6.6467 0.42102-11.848-3.3243-15.45-11.125l-1.2113-2.6232-0.41734 1.3946c-1.6608 5.5496-6.4907 10.21-11.865 11.447-1.8465 0.42526-5.8295 0.42624-7.6711 2e-3 -4.2001-0.96781-8.8862-4.6218-10.691-8.3365-3.2336-6.6548-2.054-14.086 3.0477-19.199 6.9496-6.9656 18.495-6.117 24.508 1.8013l1.4579 1.92-0.21184-1.6432c-0.6457-5.0081-3.0644-10.937-5.8563-14.357-3.0588-3.7461-7.914-6.4671-13.703-7.6798-3.1585-0.66157-11.172-1.0051-12.378-0.53057-1.9023 0.7487-5.8825 7.539-7.6053 12.975-1.9236 6.0692-2.3632 9.5978-2.3768 19.075-0.016 11.078 0.60954 15.916 2.606 20.16 1.0903 2.3176 4.1837 5.3872 6.634 6.583l1.92 0.93702 16.344-0.1864 0.70132 0.74649 0.70128 0.74649-0.62528 13.267c-0.34391 7.2967-0.67399 14.095-0.73354 15.107-0.0755 1.2822 9e-3 1.84 0.27747 1.84 0.21216 0 0.48055-0.37777 0.59642-0.83948 0.44745-1.7828 3.1594-7.0903 5.1183-10.017 7.5869-11.334 19.683-19.186 33.103-21.487 4.6631-0.79953 11.834-0.86557 15.605-0.14372 10.321 1.9754 17.241 8 19.488 16.967 0.75005 2.9935 0.75226 8.5113 4e-3 11.52-1.6119 6.4868-6.0789 12.091-11.861 14.881-3.2871 1.5861-5.6624 2.201-9.44 2.444-10.63 0.68355-19.085-4.5078-22.309-13.698-0.65225-1.8596-0.85331-3.1446-0.96806-6.1871-0.25559-6.7772 1.3552-11.578 5.162-15.385 2.317-2.317 2.2556-2.3368-2.2012-0.70905-3.8339 1.4003-9.5649 4.4869-12.804 6.8961-3.6368 2.7049-8.4093 7.5038-10.82 10.88-3.6888 5.1661-6.6257 11.782-7.8084 17.59-0.53005 2.603-0.57181 5.5763-0.57181 40.728 0 35.462 0.0375 38.08 0.57885 40.387 2.1922 9.3416 8.5251 12.726 23.821 12.732l5.5201 2e-3v8h-97.92zm59.187-225.31c6.0703-7.3759 10.394-16.912 12.365-27.272 1.0325-5.4264 1.4056-15.918 0.78384-22.046-0.98662-9.7236-3.7235-19.751-7.6287-27.949-3.2073-6.7331-3.7897-7.1929-9.5647-7.5513-1.9676-0.1221-4.2356-0.12332-5.04-0.00269-1.7942 0.26906-1.838 0.58854-0.5208 3.8023 7.5482 18.417 10.982 29.492 13.163 42.458 0.85136 5.0599 1.1938 16.103 0.64195 20.701-0.93276 7.7714-3.4293 14.82-7.2428 20.447l-1.4984 2.2114 1.3487-1.28c0.74179-0.704 2.1783-2.288 3.1922-3.52z" fill="#feffff" stroke-width=".32"/>
</svg>
