<?xml version="1.0" encoding="UTF-8" standalone="no"?>
<svg
   xmlns:dc="http://purl.org/dc/elements/1.1/"
   xmlns:cc="http://creativecommons.org/ns#"
   xmlns:rdf="http://www.w3.org/1999/02/22-rdf-syntax-ns#"
   xmlns:svg="http://www.w3.org/2000/svg"
   xmlns="http://www.w3.org/2000/svg"
   xmlns:sodipodi="http://sodipodi.sourceforge.net/DTD/sodipodi-0.dtd"
   xmlns:inkscape="http://www.inkscape.org/namespaces/inkscape"
   version="1.0"
   width="371"
   height="290"
   viewBox="0 0 638.83764 160.379"
   id="svg2"
   xml:space="preserve"
   style="overflow:visible"
   sodipodi:docname="map.svg"
   inkscape:version="1.0.2 (e86c870879, 2021-01-15)"><metadata
   id="metadata450"><rdf:RDF><cc:Work
       rdf:about=""><dc:format>image/svg+xml</dc:format><dc:type
         rdf:resource="http://purl.org/dc/dcmitype/StillImage" /><dc:title /></cc:Work></rdf:RDF></metadata><sodipodi:namedview
   pagecolor="#ffffff"
   bordercolor="#666666"
   borderopacity="1"
   objecttolerance="10"
   gridtolerance="10"
   guidetolerance="10"
   inkscape:pageopacity="0"
   inkscape:pageshadow="2"
   inkscape:window-width="1824"
   inkscape:window-height="2071"
   id="namedview448"
   showgrid="false"
   inkscape:zoom="2.6747936"
   inkscape:cx="215.6331"
   inkscape:cy="209.43097"
   inkscape:window-x="0"
   inkscape:window-y="52"
   inkscape:window-maximized="0"
   inkscape:current-layer="svg2"
   inkscape:document-rotation="0" />
<defs
   id="defs3">
	
	
		
	
		
	
		
	
		
</defs>


































<path
   d="m 416.13756,-307.26402 -19.77963,-0.47238 0.48069,-4.55756 -1.57203,-2.69153 -0.0906,-2.29142 1.93745,-3.4553 -0.2331,-2.99911 -11.23766,-6.35122 -0.58884,-2.30775 0.1843,-5.62365 c -9.8467,-1.15611 -19.66855,-2.34224 -29.06688,-3.94211 l -1.62793,-0.93393 -0.38877,-3.35575 -4.11967,-0.83982 -2.8516,0.96292 -4.46794,-0.32398 -5.05688,-2.62812 -3.80421,-0.3022 -2.35336,0.97926 -2.56508,-2.72406 -6.90215,-1.98554 -17.74276,-0.22983 -13.48631,1.49323 -4.34685,1.08967 0.81617,5.48246 2.97201,10.47793 -1.16583,5.24179 -10.72274,8.27161 -10.33661,1.59644 -19.62307,47.04343 -0.0481,52.086 9.87315,2.43441 8.22637,7.13315 5.07083,7.2055 2.3653,8.87442 8.31253,-0.60641 1.45669,1.10409 -0.23459,2.10321 0.24288,2.64794 1.45843,1.10232 0.55255,3.36294 -1.94899,3.80824 -0.47501,4.3838 0.13519,5.98743 -1.45647,3.99832 -0.8135,4.54847 -1.49856,5.23086 -0.13824,4.21727 -2.43396,3.43903 -3.53667,1.64531 1.0217,24.49273 c 0.39974,23.24749 0.70989,49.177325 1.05413,74.118957 27.70056,-0.128774 55.78022,-0.201653 79.65488,-0.908762 l 0.63068,-34.469428 22.85548,1.100411 32.57652,-52.603788 6.75699,-8.75309 8.72742,-8.15945 1.99503,-5.21278 0.80027,-4.1974 -1.76313,-6.92136 -1.67676,-9.55671 -1.29542,-6.02544 -2.62693,-5.89331 -3.90084,-7.51869 -3.29064,-5.91507 -2.85005,-4.13942 -0.54108,-3.71226 0.74266,-2.43989 3.81323,-4.97745 0.61169,-3.49872 -2.14603,-5.34848 -0.58305,-2.48333 1.15024,-4.7132 6.54091,-17.38134 9.68636,-27.31092 1.07534,-2.42719 z"
   id="path3166"
   style="fill:#bfbfbf;fill-opacity:1;stroke:#ffffff;stroke-width:1.40563;stroke-linecap:round;stroke-linejoin:round;stroke-miterlimit:4;stroke-dasharray:none;stroke-opacity:1" /><path
   d="m 377.67082,-83.194509 51.02558,1.813266 38.87167,-45.437887 c 3.10046,-3.5549 7.35491,-1.4586 11.04464,-0.0603 2.52733,1.73891 4.90618,2.53619 6.56183,-1.33781 l 7.22437,-9.35928 4.03456,-5.37245 -9.03916,-8.33934 -6.76621,-8.68886 -3.63638,-10.84578 -0.13892,-7.90638 c 0,0 -0.98448,-2.43126 -0.83286,-2.99162 0.15159,-0.56035 0.47031,-10.28724 0.47031,-10.28724 0,0 0.12936,-3.94757 0.96309,-5.04908 0.83548,-1.10145 2.66927,-8.37969 2.96954,-9.35917 0.2968,-0.97778 -0.94205,-7.79137 -0.94205,-7.79137 l 1.04163,-7.44552 12.21741,-11.45514 10.95402,-5.42657 6.94138,-8.80323 11.36434,-22.06658 10.86054,-18.83792 -0.0107,-7.76265 -1.21195,-11.75202 2.6454,-11.76876 0.46943,-6.19413 -2.6205,-5.30784 2.83306,-9.36362 2.07275,-14.46559 c 0,0 3.13527,-6.38943 3.55597,-7.08231 0.42065,-0.69286 8.66263,-4.51414 8.66263,-4.51414 l 6.88892,-7.25392 c 0,0 2.58612,-5.84211 2.66927,-8.3797 0.0832,-2.53759 1.0786,-8.57313 1.25323,-9.83757 0.17468,-1.26442 2.42536,-5.00119 2.42536,-5.00119 l 0.70042,-13.24399 2.15374,-8.44006 3.10162,-5.7799 3.42833,-3.13465 1.64609,-1.49709 0.0273,-0.84708 -132.59817,-5.19093 -2.2966,17.28304 -3.15348,19.09043 -3.36409,17.38759 -7.47445,41.38782 -7.97799,33.18531 15.70348,23.37718 -1.32836,4.04965 -15.53417,43.66222 c -1.17495,3.53827 -1.33968,7.106 0.3143,10.73694 1.88715,3.50088 -0.425,5.51609 -1.85396,7.84109 -2.00913,2.46362 -2.58706,5.19338 -2.12945,8.11653 l 13.35859,22.73534 0.15361,3.39153 0.27747,3.67825 1.30982,4.69957 c 0,0 0.82825,3.13281 0.93363,3.98243 0.10363,0.85138 1.66581,5.98141 1.66581,5.98141 l -0.27915,4.50619 -1.46777,4.18638 -1.02233,2.78949 -10.42426,9.53708 -5.286,7.02379 -4.79818,8.45127 -9.08219,13.25203 z"
   id="path3224"
   style="fill:#bfbfbf;fill-opacity:1;stroke:#ffffff;stroke-width:1.40563;stroke-linecap:round;stroke-linejoin:round;stroke-miterlimit:4;stroke-dasharray:none;stroke-opacity:1" /><g
   transform="rotate(-8.2673175,34530.984,-24523.166)"
   id="g6390"
   style="stroke:#ffffff;stroke-opacity:1">
</g>






<path
   d="m 211.99117,8.2479737 3.03584,-6.5865496 2.58558,-33.3490221 -0.003,-10.030935 -1.21056,-3.558432 -0.16247,-10.211929 -4.8552,-8.782058 -2.66732,-4.660718 -1.66525,-9.907828 -0.53125,-4.065259 -2.89035,-2.910455 0.13829,-4.219079 3.45496,-9.212791 0.56713,-7.194718 -8.10123,-5.89513 -5.41514,-6.86345 -0.92407,-7.24539 -6.24711,-16.92157 -1.9501,-11.32686 -0.28933,-11.44819 -0.757,-12.34415 -3.91817,-6.99016 -0.15244,-5.46072 -4.90137,-7.37389 -0.58674,-22.54516 28.18724,0.39633 3.82757,4.69873 6.49027,-0.66612 5.87862,2.8326 1.50849,-0.47785 0.46344,-4.03085 0.0461,-1.40636 4.46223,0.49773 6.40565,1.96928 2.66877,-0.43983 3.0804,-2.89057 10.3078,-0.71679 9.05143,2.22991 7.78572,5.35933 5.42091,6.68789 3.22156,8.0237 0.53123,4.06525 9.14184,-0.58105 1.11415,1.44438 -0.91393,2.61004 2.52476,3.95482 -0.0691,2.10863 -1.24666,2.59915 -1.22516,6.99921 0.30241,5.9929 -1.5776,2.58648 -0.64626,4.55395 -1.49276,5.05348 -0.51532,5.61459 -1.24083,2.42176 -4.69282,1.42987 1.39738,33.30378 c 0.47168,39.662309 1.10449,81.966231 1.29825,122.3424009 z"
   id="path3170"
   style="fill:#bfbfbf;fill-opacity:1;stroke:#ffffff;stroke-width:1.40563;stroke-linecap:round;stroke-linejoin:round;stroke-miterlimit:4;stroke-dasharray:none;stroke-opacity:1" /><path
   d="m 51.308227,21.634952 2.832895,9.772173 1.693819,3.927597 -0.440492,3.33038 3.731139,2.584665 2.507494,4.481522 7.289251,5.341247 14.424656,15.430106 0.512269,4.591938 1.53753,3.744909 5.838268,4.063396 6.244195,1.788209 11.953079,-0.313187 5.40532,7.216488 2.7346,2.553804 11.27951,0.01806 4.37588,3.134896 4.81624,-0.193686 6.67738,3.737539 3.09211,1.860693 0.85629,-0.850717 -2.71834,-73.997679 -2.80974,-5.370226 -0.34124,-9.8644539 4.79328,0.508568 62.88386,-0.403725 1.68723,-0.8235074 2.70313,-6.5974616 2.92807,-33.6892891 -0.0128,-9.679736 -1.08703,-2.324106 -0.79166,-11.287084 -7.17994,-13.786683 -2.21954,-13.269023 -2.37479,-3.422634 -0.53699,-3.889689 3.76125,-8.499733 0.61326,-8.602892 -8.28974,-5.19827 -5.74036,-7.05168 -0.27193,-6.87069 -6.38949,-17.63108 -1.99052,-10.09426 -1.01015,-24.84387 -3.75262,-6.98656 -0.33119,-5.11325 -5.23071,-7.3847 -1.51428,0.65523 -12.55339,-1.64526 -10.27921,-5.26344 0.30546,-4.21361 -2.55933,-2.89961 -2.2299,2.21541 -8.97627,0.58467 -12.44279,10.15042 -3.94419,3.91679 c -4.19159,-0.3131 -8.38318,-0.6262 -12.57477,-0.93929 l -0.50091,-10.04727 c -2.6145,-1.84143 -4.75177,-3.54764 -12.877179,-6.93221 -2.389409,0.93277 -4.773766,1.92004 -6.864833,6.98836 -6.781391,1.05339 -8.505183,3.56624 -12.727738,8.73322 -5.205407,5.81424 -1.471715,13.06472 -6.368034,17.21305 -5.712435,-3.99405 -13.402736,3.63406 -16.709432,-1.4263 -1.966847,2.7368 -1.851842,4.8569 1.969149,10.79839 5.019072,6.85776 3.311829,14.28689 4.769872,21.44831 0.6812,3.18958 0.777163,6.35997 2.671498,9.5893 1.96724,0.48302 3.644874,1.25552 7.811989,-0.44706 6.532812,2.77975 2.617659,9.82491 1.138412,15.87358 l -0.09948,8.09246 -0.686537,5.78293 1.557279,8.14673 c 0.437465,4.007832 0.729552,8.438507 1.624926,11.138638 l -2.872939,1.667056 -4.727114,7.585674 1.116645,6.372916 -3.790231,4.275184 c 0,0 -2.942032,3.775684 -2.801246,4.483328 0.144203,0.707737 -1.966256,4.334921 -1.966256,4.334921 0,0 -3.867618,1.632685 -4.05784,2.329459 -0.188575,0.698669 -1.108204,3.482445 -1.108204,3.482445 l 2.711622,3.256127 0.571566,2.834469 -1.309992,4.532188 -0.71536,6.662574 -3.601652,3.576527 -3.805839,4.803749 -1.446675,3.647139 5.117016,5.797334 -0.115235,3.516792 2.942378,6.430907 0.317943,5.4661325 2.996752,9.7757304 0.271862,6.8724881 -2.412445,7.839106 z"
   id="path3174"
   style="fill:#bfbfbf;fill-opacity:1;stroke:#ffffff;stroke-width:1.40563;stroke-linecap:round;stroke-linejoin:round;stroke-miterlimit:4;stroke-dasharray:none;stroke-opacity:1" /><path
   d="m 10.515337,309.77232 26.749598,-1.2362 c 1.970295,-1.06973 3.935608,-1.98739 5.993631,-5.78663 l -2.353497,-4.12497 -0.467896,-5.99833 c 3.25247,-9.49664 4.324045,-9.46335 8.871424,-12.55408 7.7132,-2.01942 16.149344,-3.21791 22.292897,-7.0119 l 3.492092,-5.3413 4.001811,-5.67614 -1.023703,-4.25714 2.572345,-2.55387 1.702831,-1.35209 -1.428892,-12.01279 1.387326,-1.8879 c 3.606348,0.55486 5.153058,-1.81883 7.06923,-4.05176 1.870093,-2.1819 5.225381,-2.72243 8.956465,-4.0461 l 4.269481,-3.7322 4.99486,-5.64358 13.58575,-9.58387 9.6314,-15.52247 3.39736,-7.45534 2.52059,-0.97376 3.48477,-0.0616 4.2119,-1.97472 4.04635,-1.97831 5.19512,-1.59097 2.34178,-0.62629 -1.86103,-3.93307 -0.66051,-5.12405 -2.48619,-5.18387 -1.43211,-6.91049 -1.05719,-63.912463 -5.20514,-3.160222 -4.74713,-1.91673 -5.65706,0.519446 -3.08061,-2.211834 -2.93643,-1.504071 -4.48527,0.204522 -5.15475,0.358389 -2.40936,-2.367433 -4.60895,-6.134007 -2.94387,-1.328551 -16.553734,-1.069691 c 0,0 -4.997526,-4.387366 -5.969203,-5.124042 -0.971656,-0.736685 -1.162783,-4.964732 -1.162783,-4.964732 l -0.896817,-3.020908 -3.186777,-3.976487 -7.510841,-8.691531 -4.525792,-3.66706 c 0,0 -1.462431,-0.928501 -4.370029,-3.31225 -2.907657,-2.381941 -3.815984,-5.051668 -5.105449,-6.150266 -1.291173,-1.098673 -2.659014,0.09042 -2.399639,-2.716812 0.257726,-2.809095 -1.112598,-6.548527 -1.112598,-6.548527 l -2.521545,-9.057113 -2.006791,0.463317 c 0,0 -2.290744,0.945057 -3.553869,2.170218 -2.081678,2.01912 -4.708634,11.192037 -3.6706,10.789357 0,0 2.942177,1.328504 -1.086901,2.780125 -4.027367,1.451676 -4.862409,1.601869 -4.862409,1.601869 l -3.792773,-0.651559 -0.240352,2.278791 -3.636228,4.631741 -0.908184,2.434453 1.204822,3.734019 -1.733369,2.231669 -2.526314,1.149333 -1.144488,4.537611 0.07765,7.743105 0.833421,4.955771 1.278103,6.553949 -1.629438,4.168412 -1.338815,5.411876 -0.629008,4.027221 2.415191,2.190044 1.782137,6.392891 -0.43468,3.15302 -2.168046,5.38466 1.43962,6.73321 1.780431,6.39288 2.486189,5.18383 3.346531,4.15753 0.935645,6.89243 -0.230405,7.03179 0.169696,4.93401 3.352335,3.98013 4.799162,5.43721 -0.636267,9.30516 -0.247807,2.4543 -9.759284,4.25536 c -3.919913,4.32348 -10.36703,6.85186 -11.220728,13.35772 l 0.714055,3.54218 1.776241,1.46423 1.643691,5.5096 -1.184817,5.7684 c -1.978218,3.0318 -4.976537,5.81452 -4.951975,9.33952 l -0.253414,7.73407 c 0.154387,4.98426 -3.831953,2.05602 -5.89736,2.79646 l -2.709141,1.67242 -0.925441,2.96118 c -2.9390516,7.02094 2.308142,8.84539 5.242336,12.13775 l 0.08661,2.46526 -1.298487,4.18108 -2.412647,2.73668 -3.0343373,1.48417 -1.1082058,3.48248 0.695034,4.07063 2.9019061,2.5575 2.873082,3.43714 -2.310481,4.67517 c -1.9039957,2.69539 -5.9134899,5.32178 -2.92223,8.17571 l -1.6812724,5.75035 -1.3215574,4.88516 1.9245712,7.10239 2.9752478,5.37567 z"
   id="path3172"
   style="fill:#bfbfbf;fill-opacity:1;stroke:#ffffff;stroke-width:1.40563;stroke-linecap:round;stroke-linejoin:round;stroke-miterlimit:4;stroke-dasharray:none;stroke-opacity:1" /><path
   d="m 148.00359,98.008941 3.80024,0.476013 4.62201,0.678721 2.31295,0.253363 4.83934,-0.897775 2.31469,0.253386 3.48325,5.040791 0.56582,3.01005 -0.8135,4.54847 -3.97127,4.7965 -3.01283,5.88429 -1.77192,3.46069 2.99998,4.67342 5.83826,4.06337 3.71216,3.11135 8.82235,-0.94303 4.53558,3.31587 5.50882,-1.05161 4.09668,1.54208 0.66219,5.1241 2.8961,2.73487 7.11377,0.58463 9.23095,6.81273 3.35973,3.80644 2.06862,2.70594 3.92947,1.53662 18.86837,1.3231 4.73569,2.26606 4.92993,1.39366 3.04585,-1.83534 3.50948,-0.7638 c 0,0 2.32458,-0.10141 3.78128,1.00268 1.45668,1.1041 8.91292,1.34841 8.91292,1.34841 l 14.45634,-0.75843 14.8509,2.42177 18.32836,7.63987 12.04963,6.90512 7.65496,9.40108 5.98646,4.59733 3.34235,-0.7711 c 2.62492,-83.02905 3.64834,-164.880242 5.46976,-247.939229 l -79.4721,0.387468 0.12917,56.8408519 C 213.33794,7.7539446 142.46666,8.4848552 142.60449,9.4913492 l 0.0892,7.3937828 c 0.52732,3.246138 1.49749,5.905246 3.40842,7.324979 0.433,24.370165 0.66666,48.516361 1.90157,73.798831 z"
   id="path3164"
   style="fill:#d2ae6d;fill-opacity:1;stroke:#ffffff;stroke-width:1.40563;stroke-linecap:round;stroke-linejoin:round;stroke-miterlimit:4;stroke-dasharray:none;stroke-opacity:1" /><path
   d="m 283.28067,347.82037 c -0.41954,-3.04329 0.10021,-7.02158 0.10021,-7.02158 l 0.53224,-0.39567 -0.63032,-0.57329 0.16569,-1.09442 1.74887,-1.87058 0.0145,-4.40613 -0.49616,-0.70478 -0.0797,-9.50441 1.34359,-1.33484 -0.20976,-1.52165 -1.35882,-2.11012 -1.71172,-3.22514 -1.21114,-2.65433 -0.15569,-3.17236 -0.88066,-0.8551 0.37657,-3.56982 -0.88517,-0.71754 0.15221,-0.68356 -0.51418,-0.15455 0.0281,-4.81882 -0.75999,-0.57573 0.23783,-3.29716 -0.91223,0.10783 0.52877,-4.25159 1.84801,-4.89688 1.00236,-2.85902 2.14247,-1.99719 0.85017,-2.17547 4.26743,0.55296 -0.85369,-1.67865 -0.99679,-1.27384 2.34318,-0.19864 4.88417,1.53893 c -0.22896,1.67035 -1.13923,2.9705 -3.67899,2.60096 -1.72036,-0.25026 -2.30543,3.11347 1.29598,2.82922 l 0.15948,-0.95873 4.28547,0.002 0.34839,1.25257 c 4.34924,0.29833 4.30765,-0.46584 7.98294,2.04993 l 1.81821,-0.0763 -0.0356,1.0987 2.06578,0.34309 2.0224,1.71875 2.56644,0.91032 2.24848,2.69012 3.10776,0.23771 0.87165,1.13025 2.0883,-0.34471 6.61687,4.0726 2.38266,2.55679 18.54961,0.47036 c 2.3792,-1.29911 12.20008,0.12433 12.20008,0.12433 l 3.17521,-1.82204 c 2.89716,-2.19717 4.49879,-4.47481 8.6242,-5.73844 l -4.61159,-5.8442 -3.68136,-5.40786 -4.17072,-2.35626 c -4.5039,-3.86747 -12.95485,-5.13554 -12.63867,-8.73814 l 1.97376,-71.02824 -8.69484,-3.57355 -3.8462,-6.99687 -10.65547,-7.64577 -9.09865,-3.60491 -9.8604,-4.17889 -12.21093,-3.70325 -14.63228,-1.16979 -11.2016,1.14953 -7.85323,-2.0475 -2.69612,-0.91461 -2.23599,0.8907 -4.065,1.2439 -3.76053,-0.12325 -4.46648,-2.34971 -15.15097,-1.18678 -5.80106,-1.28992 -2.57088,-0.77455 -2.99049,-3.8161 -1.72985,-2.6713 -10.02788,-6.9385 -4.01543,-0.26926 -3.20578,-1.20674 -2.1549,-1.58535 -0.78429,-3.74377 -2.00438,-2.269 -5.43727,-0.45357 -6.88178,0.0499 -3.47415,-0.94007 -8.49252,-2.3457 -1.75063,-1.98524 -3.11115,-4.09544 -3.07507,-5.1959 5.75737,-9.31492 2.28214,-6.25976 -0.26281,-3.86438 -1.21733,-2.51861 -1.86397,-2.539809 -1.89103,-1.71443 -2.47739,0.333751 -2.24047,1.026453 -3.2283,-0.518922 -3.20861,-1.06908 -5.20672,0.380217 1.07818,66.13999 2.19896,4.20144 1.92148,4.74681 0.48616,4.97156 2.20342,4.06567 -0.70697,1.76701 -4.93382,-0.0239 -3.82821,1.94197 -4.64227,3.01514 -5.59404,0.36754 -3.0546,2.10322 -3.59863,6.76924 -6.87136,11.61763 -19.2022,15.48431 -4.334363,5.50392 -5.527451,2.29762 -2.071982,-0.20559 -2.164998,2.685 -2.155849,2.40628 -5.001501,2.04123 -1.655252,2.97532 1.053952,11.46601 -3.063635,2.37832 -0.539473,4.52664 -2.829568,7.06805 -4.951251,4.52161 -12.706299,3.43944 -8.416334,3.30458 -2.634106,1.15487 -4.043473,4.54956 -2.371291,5.01925 1.093914,6.23265 0.974897,5.95515 -1.766837,2.41901 -3.341071,2.92187 -7.91463,-0.12156 -18.742386,1.45146 -1.3022867,4.08852 -0.8619226,6.44399 2.9488753,9.04756 1.321709,7.20405 1.181921,11.47021 3.557721,6.31335 0.115056,4.41222 C 141.63113,352.64632 192.51362,345.21951 283.28067,347.82037 Z"
   id="path2388"
   style="fill:#bfbfbf;fill-opacity:1;stroke:#ffffff;stroke-width:1.40563;stroke-linecap:round;stroke-linejoin:round;stroke-miterlimit:4;stroke-dasharray:none;stroke-opacity:1" /><path
   d="m 573.69716,-97.050532 -2.52701,-11.704518 3.14097,-17.51088 2.84549,-8.43915 3.59171,-10.41506 7.93117,-1.73869 3.89128,-3.86599 -0.97267,-17.28327 -2.55083,-10.97871 3.41083,-10.055 2.53648,-4.27458 -2.49319,-7.52509 1.05692,-6.13863 -0.736,-3.65522 -0.20445,-4.18501 7.01088,-5.03394 2.32602,-8.27678 0.80725,-3.78586 -1.44818,-2.77078 0.27764,-3.25963 5.00159,-6.37175 3.4126,-10.05674 2.60358,-16.80007 -0.44055,-7.45786 -2.06704,-4.7878 -4.66712,-9.04952 0.54929,-6.33824 -7.22728,-4.05274 -3.78006,-4.84392 -4.39722,-1.59726 -8.16544,-1.53771 -5.67818,0.90291 -5.89633,2.34896 -3.26655,0.43831 -5.28169,-0.71841 -3.13159,1.53172 -5.37256,2.00191 -7.19343,0.12669 -2.93118,0.63053 -5.57714,-2.18131 -7.65948,3.92554 0.17136,15.6208 -2.64775,7.72269 -4.89643,8.37375 c 0,0 -10.25713,15.27913 -10.28091,16.00494 -0.0242,0.7258 -6.57044,12.4954 -6.57044,12.4954 l -12.62554,9.21128 -9.32503,7.68326 -4.03557,8.21896 -0.47972,9.42625 -1.93126,11.92084 -2.26832,11.72858 1.64849,12.40052 c 0,0 0.77163,7.8329 1.46604,7.49145 0.69441,-0.34144 7.02109,10.39679 7.02109,10.39679 l 7.4557,7.50834 14.35956,16.26874 11.76722,6.55883 2.76908,4.26542 7.94717,2.98553 5.44812,6.17059 6.97351,1.31927 6.58485,2.7561 9.00834,1.92953 5.02962,3.25052 5.01607,3.614277 3.92686,0.311674 z"
   id="path3201"
   style="fill:#bfbfbf;fill-opacity:1;stroke:#ffffff;stroke-width:1.40563;stroke-linecap:round;stroke-linejoin:round;stroke-miterlimit:4;stroke-dasharray:none;stroke-opacity:1" /><g
   transform="matrix(1.7062381,0.0559075,-0.05930699,1.8099873,-139.09553,-678.55341)"
   id="g3252"
   style="fill:#d2ae6d;fill-opacity:1;stroke:#ffffff;stroke-width:0.293797;stroke-miterlimit:4;stroke-dasharray:none;stroke-opacity:1">
	<g
   id="g3237"
   style="fill:#d2ae6d;fill-opacity:1;stroke:#ffffff;stroke-width:0.293797;stroke-miterlimit:4;stroke-dasharray:none;stroke-opacity:1">
		
			
		<path
   d="M 328.755,469.036 Z"
   id="path2417"
   style="fill:#d2ae6d;fill-opacity:1;stroke:#ffffff;stroke-width:0.293797;stroke-linecap:round;stroke-linejoin:round;stroke-miterlimit:4;stroke-dasharray:none;stroke-opacity:1" />
		<path
   d="m 334.85,465.83 -0.297,-0.445 v 1.113 l 0.371,0.816 v 0.742 l 0.816,0.074 0.965,0.891 0.297,0.074 1.188,0.148 0.594,0.371 0.371,1.336 0.594,-0.148 0.594,-2.078 -0.594,-0.965 -0.445,-0.668 -0.594,-0.445 -0.52,-0.445 z"
   id="path3199"
   style="fill:#d2ae6d;fill-opacity:1;stroke:#ffffff;stroke-width:0.293797;stroke-linecap:round;stroke-linejoin:round;stroke-miterlimit:4;stroke-dasharray:none;stroke-opacity:1" />
		<path
   d="m 333.068,462.12 -0.073,0.965 0.444,0.519 -0.594,0.297 1.262,0.149 0.891,-0.298 1.707,0.965 0.223,0.52 0.891,-0.742 -0.816,-0.52 -1.039,-0.223 -0.148,-0.742 -2.004,0.148 -0.742,-0.519 v -0.519 z"
   id="path3202"
   style="fill:#d2ae6d;fill-opacity:1;stroke:#ffffff;stroke-width:0.293797;stroke-linecap:round;stroke-linejoin:round;stroke-miterlimit:4;stroke-dasharray:none;stroke-opacity:1" />
		<path
   d="m 329.878,461.155 -0.594,0.742 0.148,0.815 0.594,-0.222 -0.074,-0.52 0.445,-0.52 z"
   id="path3204"
   style="fill:#d2ae6d;fill-opacity:1;stroke:#ffffff;stroke-width:0.293797;stroke-linecap:round;stroke-linejoin:round;stroke-miterlimit:4;stroke-dasharray:none;stroke-opacity:1" />
		<path
   d="m 334.033,469.764 c 0,0 0.668,-0.297 0.668,0 0,0.297 -0.148,0.816 -0.148,0.816 l 0.594,0.594 -0.594,0.371 -0.742,-0.891 -1.262,-0.445 0.297,-0.891 0.891,-0.297 z"
   id="path3206"
   style="fill:#d2ae6d;fill-opacity:1;stroke:#ffffff;stroke-width:0.293797;stroke-linecap:round;stroke-linejoin:round;stroke-miterlimit:4;stroke-dasharray:none;stroke-opacity:1" />
		<path
   d="m 335.814,470.283 0.965,0.148 v 0.668 z"
   id="path3208"
   style="fill:#d2ae6d;fill-opacity:1;stroke:#ffffff;stroke-width:0.293797;stroke-linecap:round;stroke-linejoin:round;stroke-miterlimit:4;stroke-dasharray:none;stroke-opacity:1" />
		<path
   d="M 330.472,458.187 Z"
   id="path3210"
   style="fill:#d2ae6d;fill-opacity:1;stroke:#ffffff;stroke-width:0.293797;stroke-linecap:round;stroke-linejoin:round;stroke-miterlimit:4;stroke-dasharray:none;stroke-opacity:1" />
		<path
   d="m 330.694,459.077 0.371,0.074 -0.445,-0.816 -0.594,-0.371 z"
   id="path3212"
   style="fill:#d2ae6d;fill-opacity:1;stroke:#ffffff;stroke-width:0.293797;stroke-linecap:round;stroke-linejoin:round;stroke-miterlimit:4;stroke-dasharray:none;stroke-opacity:1" />
		<path
   d="m 328.839,503.159 -0.52,0.668 v 1.113 l 0.742,-0.445 0.52,-0.223 z"
   id="path3214"
   style="fill:#d2ae6d;fill-opacity:1;stroke:#ffffff;stroke-width:0.293797;stroke-linecap:round;stroke-linejoin:round;stroke-miterlimit:4;stroke-dasharray:none;stroke-opacity:1" />
		<path
   d="m 334.107,498.112 -0.148,1.634 0.074,0.964 0.297,-1.113 z"
   id="path3216"
   style="fill:#d2ae6d;fill-opacity:1;stroke:#ffffff;stroke-width:0.293797;stroke-linecap:round;stroke-linejoin:round;stroke-miterlimit:4;stroke-dasharray:none;stroke-opacity:1" />
		<path
   d="m 332.772,505.015 -0.075,1.336 -0.519,0.445 v 1.039 0.891 l -0.445,0.742 -0.445,-0.297 -0.074,0.668 0.593,0.519 0.594,-0.815 0.668,-0.965 -0.223,-0.816 -0.148,-0.52 h 0.668 l 0.371,-0.668 -0.52,-0.148 0.148,-0.371 0.594,0.52 0.148,-1.707 -0.668,0.742 z"
   id="path3218"
   style="fill:#d2ae6d;fill-opacity:1;stroke:#ffffff;stroke-width:0.293797;stroke-linecap:round;stroke-linejoin:round;stroke-miterlimit:4;stroke-dasharray:none;stroke-opacity:1" />
		<path
   d="m 330.472,493.66 -0.594,0.223 0.816,0.816 0.074,-0.594 z"
   id="path3220"
   style="fill:#d2ae6d;fill-opacity:1;stroke:#ffffff;stroke-width:0.293797;stroke-linecap:round;stroke-linejoin:round;stroke-miterlimit:4;stroke-dasharray:none;stroke-opacity:1" />
	<path
   d="m 382.044,284.461 7.313,7.238 3.982,1.748 3.69,2.331 0.874,1.748 3.204,0.485 3.399,2.622 3.011,1.846 3.69,-0.194 6.216,2.525 1.651,-0.194 3.981,2.719 2.525,1.36 2.91,-0.49 0.701,1.999 -0.019,0.919 -0.098,1.457 -0.485,1.845 -0.388,1.942 -0.389,1.165 -1.068,0.486 -0.68,-0.777 -1.166,0.583 v 0.874 l 0.681,0.389 v 1.068 l -0.486,0.485 0.194,0.68 -0.777,0.582 0.292,1.068 0.874,0.68 0.098,0.583 0.193,0.68 3.011,4.273 0.485,0.874 0.875,0.292 0.485,0.388 1.165,0.389 c 0,0 -0.097,1.457 0.291,1.457 0.389,0 1.651,0.097 1.651,0.097 h 1.263 l 0.583,0.486 1.262,0.776 1.068,0.874 1.846,0.485 1.068,0.583 0.874,0.972 2.622,1.65 1.457,0.485 0.097,0.777 1.263,0.777 1.165,0.874 1.36,0.291 1.845,1.651 0.874,1.554 1.263,1.165 0.874,1.165 2.816,3.788 0.972,1.846 0.291,1.65 -0.582,1.554 -1.069,1.068 -1.068,1.457 -1.165,0.874 v 0.874 l -1.068,1.068 -0.485,1.165 -1.36,2.137 -0.485,1.263 -0.097,1.651 v 1.456 l 0.097,1.555 0.777,1.456 1.165,2.137 0.777,0.972 0.583,2.039 2.039,1.651 c 0,0 0.874,0.971 1.068,1.456 0.194,0.486 1.748,1.263 1.748,1.263 l 2.428,0.583 0.972,0.097 0.291,0.486 0.389,-0.874 1.165,0.097 1.166,0.583 h 0.485 l -0.098,-1.068 0.292,-0.291 0.485,1.456 0.776,5.925 0.098,0.874 c 0,0 -0.291,0.68 -0.291,1.068 0,0.388 0,1.262 0,1.845 0,0.583 0.291,1.359 0.291,1.359 v 1.166 l -0.194,0.971 -0.389,0.874 0.583,1.166 -0.389,1.554 -0.776,1.554 c 0,0 -0.389,-0.097 -0.777,0.68 -0.389,0.777 -1.651,2.914 -1.651,2.914 l -1.067,0.389 -0.583,1.65 c 0,0 -0.972,0.874 -1.263,1.359 -0.291,0.486 -1.359,1.846 -1.359,1.846 0,0 -0.68,0.777 -0.68,1.165 0,0.389 -0.389,1.36 -0.389,1.36 0,0 -0.68,-0.194 -0.971,0.194 -0.292,0.388 -0.486,1.359 -0.486,1.359 l 0.097,0.776 -0.68,1.166 -0.776,0.874 -1.748,2.524 -1.006,1.103 c 0,0 -0.257,0.354 -0.646,0.646 -0.389,0.291 -0.68,0.291 -1.068,0.485 -0.388,0.194 -0.68,0.388 -0.68,0.388 l -0.389,0.777 c 0,0 -0.485,0.194 -1.068,0.583 -0.582,0.389 -1.263,2.137 -1.263,2.137 0,0 -0.874,0.388 -1.068,0.776 -0.193,0.389 -0.776,0.972 -1.165,1.457 -0.389,0.485 -0.874,2.137 -0.874,2.137 v 1.068 l -0.291,1.165 -0.874,0.583 0.68,0.776 c 0,0 0.097,0.486 0,1.068 -0.098,0.583 -0.68,1.457 -0.68,1.457 0,0 -0.389,0.389 -0.777,0.874 -0.388,0.485 -0.874,1.068 -0.874,1.068 0,0 -1.359,1.651 -1.846,1.845 -0.485,0.194 -2.039,1.069 -2.039,1.069 0,0 -0.68,0.388 -1.263,0.582 -0.583,0.194 -0.971,0.291 -1.554,0.68 -0.582,0.389 -1.457,0.874 -1.846,0.874 -0.388,0 -0.485,-0.193 -0.776,0.292 -0.292,0.485 -0.389,0.485 -0.874,0.874 -0.485,0.389 -0.389,0.389 -1.165,0.68 -0.777,0.291 -0.681,0 -1.263,0.389 -0.583,0.388 -1.068,0.971 -1.068,0.971 0,0 -0.098,0.292 -0.972,0.485 -0.874,0.194 -0.894,-0.02 -2.33,0.617 -0.943,0.417 -1.457,0.84 -2.331,0.938 -0.874,0.097 -1.068,0.097 -1.846,0.291 -0.776,0.194 -0.874,0.389 -1.748,0.776 -0.874,0.389 -1.457,0.389 -1.457,0.389 l -2.913,0.777 -3.205,0.971 -3.302,1.166 c 0,0 -1.359,0.389 -2.428,0.485 -1.069,0.096 -1.942,0.291 -2.428,0.389 -0.486,0.097 -1.651,0.194 -2.234,0.388 -0.583,0.195 -0.583,0.681 -1.748,0.777 -1.165,0.098 -2.428,0.194 -3.107,0.292 -0.68,0.097 -1.166,0 -2.04,0.291 -0.874,0.291 -2.815,1.165 -3.302,1.165 -0.485,0 -2.816,1.166 -2.816,1.166 0,0 -1.846,0.193 -3.69,0.193 -1.844,0 -2.913,0.875 -3.885,0.875 -0.971,0 -4.37,0.582 -4.37,0.582 0,0 -0.971,0.681 -2.525,0.874 -1.554,0.194 -2.719,0.389 -3.398,0.486 -0.68,0.097 -1.457,0.485 -2.72,0.582 -1.263,0.098 -0.389,0.194 -3.399,0.389 -3.01,0.195 -6.507,1.165 -6.507,1.165 l -3.593,-0.193 -3.399,0.388 c 0,0 -1.942,-0.874 -2.331,-0.776 -0.389,0.097 -1.554,1.554 -1.942,1.456 -0.388,-0.097 -1.748,0.681 -1.748,0.681 l -0.972,-1.457 -2.233,0.194 -3.204,-0.583 c 0,0 -1.555,-0.291 -2.331,-0.68 -0.777,-0.389 -1.457,-0.389 -1.748,-0.777 -0.292,-0.388 -1.554,-2.33 -1.554,-2.33 l -1.263,-1.263 -1.263,-0.194 -1.068,-0.485 -0.874,0.582 v 0.777 l -0.485,0.291 0.097,-0.68 -0.389,-0.485 -0.485,0.971 v 1.457 l 0.971,0.194 0.195,0.874 c 0,0 1.165,0.68 0.388,0.971 -0.776,0.292 -0.485,0.875 -0.485,0.875 l 0.971,0.971 1.36,0.097 -0.874,1.068 -0.972,0.583 0.292,0.777 -0.583,0.582 -0.68,0.292 0.291,0.485 0.583,0.194 -0.098,0.583 -0.389,0.291 0.777,0.776 0.098,0.681 0.291,0.582 0.485,0.292 0.292,-0.486 0.582,0.583 -0.291,0.777 0.762,0.429 h 1.038 0.668 l 0.148,0.816 0.669,-0.371 0.444,0.297 1.113,0.965 0.742,0.52 0.445,1.483 -1.262,0.074 -0.742,-0.371 -0.074,-0.37 h -1.113 l 0.074,-0.965 -0.519,-0.223 -0.892,-0.594 -0.519,-0.371 -1.113,0.223 0.148,0.816 1.038,-0.074 0.966,0.371 v 1.113 l 0.815,0.37 0.891,0.446 c 0,0 -0.148,0.37 0.223,0.37 0.371,0 0.668,0.148 0.668,0.148 l 0.445,0.445 -0.297,0.445 -0.223,1.039 0.148,1.113 c 0,0 -0.297,0.148 -0.371,0.52 -0.074,0.372 0,0.891 0,0.891 l -0.594,0.297 c 0,0 -0.074,1.113 0,1.41 0.074,0.297 0.148,1.039 -0.074,1.41 -0.222,0.371 -0.297,1.039 -0.297,1.039 l 0.445,0.668 -0.223,0.815 c 0,0 -0.223,0.075 -0.223,0.445 0,0.371 0,0.891 0,1.336 0,0.445 0.297,0.223 0.297,0.223 l 0.074,0.668 -0.444,0.074 0.222,0.371 -0.074,0.742 -0.668,0.223 -0.741,-0.445 -0.445,-0.223 -0.224,0.594 -0.964,-0.148 -1.262,0.297 -0.816,0.594 0.074,0.594 0.816,0.445 -0.816,0.297 -0.148,0.594 0.594,0.742 -0.742,-0.074 -0.223,1.262 0.223,2.597 0.965,0.966 -0.891,0.593 c 0,0 -0.148,0.521 -0.148,0.817 0,0.296 -0.445,0.519 -0.445,0.519 l -0.148,1.559 -0.668,-0.965 -0.742,0.816 -0.445,0.742 -0.371,1.188 0.371,1.262 c 0,0 -0.148,0.297 0.371,1.113 0.519,0.816 0.742,0.742 0.742,1.039 0,0.297 0.371,1.336 0.371,1.336 l 1.93,0.594 0.668,0.815 1.484,0.742 c 0,0 0.222,0.52 0.519,0.668 0.297,0.148 0.297,0.816 0.297,0.816 v 1.484 l -0.667,0.891 c 0,0 -0.445,-0.074 -0.52,0.297 -0.075,0.371 -0.074,0.668 -0.148,1.188 -0.074,0.52 -0.965,2.895 -0.965,2.895 l -0.445,1.336 -1.039,0.89 -0.816,0.742 -0.668,0.075 c 0,0 0.148,0.741 -0.223,0.741 -0.371,0 -1.484,0 -1.484,0 l -1.113,0.371 -0.371,0.52 -1.93,0.371 c 0,0 -0.445,1.188 -0.742,1.188 -0.297,0 -1.188,0.148 -1.188,0.148 0,0 0.074,0.223 0,0.594 -0.074,0.371 -0.668,-0.074 -0.668,-0.074 h -1.483 l -4.453,-5.789 -4.229,-2.597 -2.152,-0.445 -1.336,-1.113 h -2.895 l -1.781,-197.331 43.191,0.148 20.335,-24.49 0.297,-1.262 c 0,0 0.52,-0.965 0.816,-1.113 0.296,-0.148 2.523,-0.594 2.523,-0.594 l 2.448,0.891 2.078,0.594 1.707,0.816 z"
   id="path2413"
   style="fill:#d2ae6d;fill-opacity:1;stroke:#ffffff;stroke-width:0.489661;stroke-linecap:round;stroke-linejoin:round;stroke-miterlimit:4;stroke-dasharray:none;stroke-opacity:1" /></g>
	<path
   d="m 431.768,314.792 -0.261,0.573 0.209,0.26 0.156,0.313 0.26,-0.313 -0.156,-0.313 z"
   id="path3222"
   style="fill:#d2ae6d;fill-opacity:1;stroke:#ffffff;stroke-width:0.293797;stroke-linecap:round;stroke-linejoin:round;stroke-miterlimit:4;stroke-dasharray:none;stroke-opacity:1" />
</g><path
   d="m 568.3874,-66.470615 0.0966,0.02127 0.18903,-0.08803 0.11556,0.01827 0.0622,0.08538 -0.036,0.212635 -0.0324,0.05149 0.11079,0.215628 0.0409,0.0049 0.0856,-0.111354 0.0745,0.01875 0.0227,0.241737 0.0814,0.01898 0.0292,-0.162115 0.0441,0.0087 0.0713,0.1183 -4.6e-4,0.09781 0.0923,0.155228 0.19255,0.118651 0.29006,0.06205 0.0932,0.126264 -0.0665,0.41456 0.732,0.596561 0.30756,0.466678 0.0951,0.01762 0.0472,0.07401 c 0.005,0.002 0.0101,0.0021 0.0153,0.0041 0.0187,0.0024 0.0424,0.0087 0.0562,0.0073 0.024,-9.96e-4 0.0441,0.01051 0.0521,0.02345 0.009,0.01295 -0.003,0.04156 -0.005,0.05419 -0.004,0.02164 -0.008,0.0414 -0.0122,0.0612 -0.003,0.01985 -0.006,0.03784 -0.0104,0.05764 -0.003,0.01985 -0.006,0.03785 -0.0104,0.05764 -0.004,0.02706 -0.003,0.03433 6.8e-4,0.05258 0.005,0.01102 0.0353,0.01747 0.0437,0.02136 0.0186,0.0097 0.0267,0.01901 0.04,0.03031 0.02,0.01516 0.0184,0.01329 0.0192,0.03868 0.002,0.0073 0.0264,0.02985 0.0295,0.0354 0.013,0.01854 0.0142,0.0367 0.0358,0.0501 0.0184,0.01329 0.044,0.01412 0.0661,0.01847 0.0221,0.0061 0.0408,0.01043 0.0629,0.01474 0.0254,0.0062 0.0355,0.0103 0.0504,0.02341 0.005,0.0056 0.0254,0.0062 0.0338,0.0083 l 0.29256,0.402781 0.0372,-0.19991 -0.29935,-0.350456 c 0.004,-0.02525 0.0134,-0.04848 0.0178,-0.07552 0.002,-0.01079 0.004,-0.02344 0.006,-0.03422 l 0.10338,0.02513 0.1145,0.154148 0.0798,0.01171 0.16079,-0.05997 0.0819,0.109584 -0.16925,0.05607 0.0502,0.08318 0.23158,-0.08301 0.2081,0.269548 -0.16076,0.05815 0.0634,0.09812 0.19765,-0.08956 0.16376,0.163009 -0.27421,0.132339 0.0856,0.09883 0.25385,-0.136631 0.078,0.12395 -0.22675,0.142958 0.0568,0.09246 0.2215,-0.139517 -0.0183,0.144357 -0.17958,0.111896 0.0328,0.09166 0.1636,-0.09249 0.032,0.117014 -0.28092,0.128507 0.0581,0.206647 -0.20352,0.06037 -0.009,0.07037 0.17293,0.03829 -0.0564,0.315244 0.0943,1.137351 c 0.002,0.0054 0.002,0.01092 5.9e-4,0.01635 0.002,0.02546 0.0215,0.02064 0.0418,0.02674 0.0187,0.0042 0.0355,0.0084 0.0542,0.01264 0.0238,0.0044 0.0309,-0.0044 0.0514,-0.0091 0.0156,-0.0049 0.0357,0.003 0.0527,0.0071 0.0221,0.0043 0.0337,0.01198 0.0455,0.01781 0.0118,0.0058 0.0353,0.01564 0.0487,0.02335 0.0235,0.01162 0.0366,0.02658 0.0551,0.03624 0.0201,0.01153 0.049,0.01609 0.0711,0.02043 0.0187,0.0042 0.0355,0.0084 0.0542,0.01265 0.0221,0.0043 0.0374,0.0066 0.0506,0.01797 0.0116,0.01124 5.8e-4,0.05619 -8.3e-4,0.07246 -0.003,0.01983 -0.008,0.03778 -0.0121,0.05759 -0.004,0.02704 -0.006,0.03421 0.0209,0.03874 0.0187,0.0042 0.0356,0.0084 0.0542,0.01265 0.0118,0.0022 0.0364,-0.01693 0.0435,-0.02393 0.014,-0.01042 0.0213,-0.02466 0.037,-0.03685 0.0175,-0.0121 0.0462,-0.0021 0.0649,0.0022 0.0238,0.0062 0.0391,0.01028 0.0572,0.02543 0.025,0.01891 0.0468,0.03417 0.0773,0.04059 0.0153,0.0041 0.0632,0.04918 0.0716,0.0567 0.0133,0.0094 0.0146,0.02042 0.0158,0.03858 0.002,0.02906 -0.008,0.03778 -0.0303,0.03887 -0.0257,0.0028 -0.0426,-0.0032 -0.0667,0.0032 -0.019,0.0048 -0.0361,0.0078 -0.0418,0.0258 -0.005,0.0143 0.0266,0.0208 0.0261,0.03529 -0.006,0.027 -0.008,0.03596 0.0192,0.03868 0.0271,0.0063 0.0277,0.03896 0.0359,0.05192 0.0114,0.01669 0.0227,0.03516 0.0309,0.04631 0.0163,0.02409 0.009,0.04921 0.0215,0.07679 0.007,0.01289 -0.005,0.04695 -0.007,0.06139 -0.006,0.02699 -0.003,0.03433 -0.0268,0.03537 -0.024,9.97e-4 -0.0476,-0.007 -0.0748,-0.01158 -0.0203,-0.0061 -0.0408,-0.01033 -0.0628,-0.01473 -0.017,-0.0042 -0.0295,-0.0372 -0.0309,-0.04632 -5.9e-4,-0.01634 -0.0195,-0.03324 -0.0258,-0.04433 -0.0114,-0.01667 -0.0202,-0.0098 -0.0343,0.0097 -0.0143,0.02127 -0.0247,0.02457 -0.0291,0.0534 -0.004,0.02344 -0.004,0.03792 -0.0222,0.05001 -0.0139,0.0104 -0.0242,0.01007 -0.0398,0.01498 -0.0207,0.0066 -0.0345,-0.04099 -0.0394,-0.05021 -0.0147,-0.02222 -0.0207,-0.04416 -0.0285,-0.06617 -0.008,-0.02565 -0.008,-0.02746 -0.0348,-0.03375 -0.0187,-0.0024 -0.0286,0.04074 -0.0341,0.05324 -0.01,0.02326 -0.0118,0.04673 -0.016,0.07195 -0.006,0.0306 -0.0166,0.03751 -0.0377,0.06037 -0.0282,0.02625 -0.0493,0.04367 -0.0772,0.0627 -0.0158,0.01035 -0.0364,0.01331 -0.0484,0.01835 -0.0224,0.0047 -0.0349,0.02241 -0.0555,0.02899 -0.0207,0.0047 -0.0377,0.0024 -0.0582,0.0035 -0.003,-9.8e-5 -0.007,-0.002 -0.0101,-0.0039 l -0.46905,-0.645932 -0.0334,0.185533 0.33049,0.443885 -9.1e-4,0.115935 -0.2428,0.16418 c -0.009,-0.0021 -0.0153,-0.0059 -0.0236,-0.008 -0.0187,-0.006 -0.0383,0.02412 -0.0488,0.0292 -0.0191,0.01385 -0.0428,0.0022 -0.0699,-0.0041 -0.0272,-0.0045 -0.0526,-0.01083 -0.078,-0.01707 -0.0271,-0.0063 -0.0527,-0.01073 -0.0797,-0.01709 -0.0289,-0.0064 -0.0362,0.01149 -0.039,0.04219 -0.006,0.03422 -0.007,0.05413 -0.005,0.0832 0.002,0.0381 0.0105,0.04202 0.0445,0.04856 0.0238,0.0062 0.0103,0.04743 0.01,0.07098 -6.1e-4,0.0181 0.0311,0.03908 0.0338,0.06271 0.001,0.03266 -0.0153,0.05205 -0.0246,0.07348 -0.0129,0.02856 -0.0319,0.03701 -0.0529,0.05081 -0.021,0.01561 -0.0349,0.02242 -0.0511,0.04544 -0.005,0.007 -0.0613,-0.0073 -0.0747,-0.01158 -0.034,-0.0065 -0.0297,0.02077 -0.0489,0.03645 -0.0262,0.01725 -0.042,0.02943 -0.068,0.04127 -0.0157,0.0085 -0.0397,0.01138 -0.0569,0.01623 -0.031,0.0081 -0.0589,0.02707 -0.0832,0.03351 -0.0276,0.0082 -0.0415,0.01495 -0.0661,0.03588 -0.0245,0.02096 -0.0402,0.02588 -0.0663,0.04131 -0.0296,0.01898 -0.0301,0.03162 -0.0648,0.04862 -0.026,0.01184 -0.0461,0.05104 -0.0653,0.0649 -0.0244,0.01551 -0.0401,0.02223 -0.0612,0.04149 -0.0247,0.02274 -0.0454,0.03293 -0.063,0.04324 -0.0227,0.01555 -0.0414,0.01132 -0.0609,0.03605 -0.0196,0.02473 -0.0318,0.03339 -0.0541,0.03449 l -0.37749,-0.05224 -0.25162,0.120386 c -0.005,0.0071 -0.0154,0.0013 -0.024,9.96e-4 -0.005,0.0089 -0.0191,0.0085 -0.0294,0.01174 -0.009,0.01417 -0.15093,-0.03395 -0.18822,-0.0424 -0.0306,-0.0064 -0.0577,-0.01277 -0.0899,-0.01926 -0.0254,-0.0062 -0.0509,-0.01078 -0.078,-0.01704 -0.0271,-0.0063 -0.0525,-0.01261 -0.0797,-0.01711 -0.0271,-0.0063 -0.0508,-0.01254 -0.078,-0.01706 -0.0204,-0.0043 -0.0373,-0.0084 -0.0577,-0.01275 -0.017,-0.0042 -0.0471,-0.0722 -0.0723,-0.0839 -0.003,-0.0019 -0.007,-0.002 -0.0101,-0.0021 l -0.77684,-0.16678 -0.18889,0.08258 -1.20496,1.118345 -1.09609,0.975146 -0.97988,-1.371141 -1.77323,-2.49512 -0.0853,-1.09901 0.46069,-2.278811 2.08575,-2.924971 z"
   id="path2265"
   style="fill:#bfbfbf;fill-opacity:1;stroke:#ffffff;stroke-width:1.40563;stroke-linecap:round;stroke-linejoin:round;stroke-miterlimit:4;stroke-dasharray:none;stroke-opacity:1" /></svg>
